<?xml version="1.0" encoding="UTF-8" standalone="no"?>
<svg
   xmlns:dc="http://purl.org/dc/elements/1.1/"
   xmlns:cc="http://creativecommons.org/ns#"
   xmlns:rdf="http://www.w3.org/1999/02/22-rdf-syntax-ns#"
   xmlns:svg="http://www.w3.org/2000/svg"
   xmlns="http://www.w3.org/2000/svg"
   version="1.1"
   id="svg2"
   viewBox="0 0 52.834496 73.861741"
   height="20.845425mm"
   width="14.911069mm">
  <defs
     id="defs4" />
  <metadata
     id="metadata7">
    <rdf:RDF>
      <cc:Work
         rdf:about="">
        <dc:format>image/svg+xml</dc:format>
        <dc:type
           rdf:resource="http://purl.org/dc/dcmitype/StillImage" />
        <dc:title></dc:title>
      </cc:Work>
    </rdf:RDF>
  </metadata>
  <g
     transform="translate(-148.4239,-654.62971)"
     id="layer1">
    <path
       style="fill:#878787"
       d="m 148.61236,728.18035 c -0.36639,-0.59283 -0.1648,-7.70946 0.31443,-11.10009 2.26692,-16.03877 11.08293,-28.36017 22.03527,-30.79683 3.02873,-0.67383 7.08137,-0.4495 9.92906,0.54962 9.97176,3.4986 17.43285,14.50489 19.95419,29.43557 0.20357,1.20548 0.37978,4.42739 0.39159,7.15981 l 0.0215,4.96804 -26.2101,0.0746 c -20.72002,0.059 -26.2574,-0.002 -26.43591,-0.29074 z m 22.39943,-44.29581 c -2.29331,-0.59944 -4.32256,-1.749 -6.25018,-3.5407 -8.63616,-8.02719 -4.86073,-22.32741 6.67687,-25.29007 5.92359,-1.52107 12.6042,1.15069 15.99494,6.39682 3.09487,4.78836 3.09512,11.33391 5.8e-4,16.11764 -3.54364,5.4781 -10.05206,7.98136 -16.42221,6.31631 z"
       id="path3375" />
  </g>
</svg>
