<?xml version="1.0" encoding="UTF-8" standalone="no"?>
<svg
   xmlns:dc="http://purl.org/dc/elements/1.1/"
   xmlns:cc="http://creativecommons.org/ns#"
   xmlns:rdf="http://www.w3.org/1999/02/22-rdf-syntax-ns#"
   xmlns:svg="http://www.w3.org/2000/svg"
   xmlns="http://www.w3.org/2000/svg"
   version="1.1"
   id="svg3380"
   viewBox="0 0 60.352551 28.277086"
   height="7.980422mm"
   width="17.032831mm">
  <defs  id="defs3382" />
  <metadata
     id="metadata3385">
    <rdf:RDF>
      <cc:Work
         rdf:about="">
        <dc:format>image/svg+xml</dc:format>
        <dc:type
           rdf:resource="http://purl.org/dc/dcmitype/StillImage" />
        <dc:title></dc:title>
      </cc:Work>
    </rdf:RDF>
  </metadata>
  <g
     transform="matrix(1,0,0,1,1338.4051,-40.4755)" id="layer1">
    <g
       id="g3413">
      <path
         id="path3405"
         d="m 118.32518,721.88332 c -9.83189,-1.93793 -14.53864,-2.9158 -14.61497,-3.03638 -0.1245,-0.19669 -0.1635,-18.20363 -0.0401,-18.52515 0.0451,-0.1176 0.2242,-0.19889 0.43811,-0.19889 0.19898,0 2.52692,-0.28082 5.17319,-0.62404 19.12572,-2.48063 23.39433,-3.02245 23.81903,-3.02339 0.63393,-10e-4 30.19721,4.26396 30.56408,4.40976 l 0.2829,0.11244 -0.002,9.46438 c -0.001,5.20541 -0.0501,9.54046 -0.10907,9.63344 -0.0748,0.11796 -4.77658,0.84883 -15.55799,2.4184 -8.49797,1.23714 -15.45086,2.24453 -15.45086,2.23864 0,-0.006 -6.52607,-1.29703 -14.50238,-2.86921 z"
         style="fill:#d0d0d0" />
      <path
         id="path3403"
         d="m 118.49357,721.76148 c -7.95285,-1.56422 -14.53045,-2.88911 -14.61689,-2.94421 -0.12335,-0.0786 -0.15717,-2.04449 -0.15717,-9.13551 0,-4.96944 0.0343,-9.12484 0.0763,-9.23423 0.0438,-0.11406 0.22252,-0.19889 0.41909,-0.19889 0.18852,0 6.70349,1.10878 14.4777,2.46396 7.77422,1.35519 14.33298,2.49205 14.57502,2.52637 0.24204,0.0343 1.62829,-0.11024 3.08055,-0.32126 1.45226,-0.21101 5.78075,-0.84063 9.61886,-1.39916 14.93662,-2.17359 17.41027,-2.51991 17.5676,-2.45953 0.13174,0.0506 0.15671,1.87145 0.13064,9.52531 l -0.0322,9.46281 -15.22538,2.21445 c -8.37397,1.21794 -15.27691,2.24357 -15.33989,2.27918 -0.063,0.0356 -6.62137,-1.21507 -14.57422,-2.77929 z"
         style="fill:#bebebe" />
      <path
         id="path3401"
         d="m 118.2421,721.58021 c -7.74538,-1.53197 -14.15324,-2.83118 -14.23968,-2.88713 -0.12334,-0.0798 -0.15718,-2.04744 -0.15718,-9.13992 0,-5.0015 0.0489,-9.06845 0.10959,-9.10593 0.11486,-0.071 28.86558,4.8985 29.06963,5.02461 0.0711,0.0439 0.11744,3.79312 0.11744,9.49542 l 0,9.42283 -0.40864,-0.0122 c -0.22476,-0.007 -6.74578,-1.26568 -14.49116,-2.79765 z"
         style="fill:#989898" />
    </g>
  </g>
</svg>
