<?xml version="1.0" encoding="UTF-8" standalone="no"?>
<svg
   xmlns:dc="http://purl.org/dc/elements/1.1/"
   xmlns:cc="http://creativecommons.org/ns#"
   xmlns:rdf="http://www.w3.org/1999/02/22-rdf-syntax-ns#"
   xmlns:svg="http://www.w3.org/2000/svg"
   xmlns="http://www.w3.org/2000/svg"
   version="1.1"
   id="svg2"
   viewBox="0 0 102.75066 129.70014"
   height="36.604263mm"
   width="28.99852mm">
  <defs
     id="defs4" />
  <metadata
     id="metadata7">
    <rdf:RDF>
      <cc:Work
         rdf:about="">
        <dc:format>image/svg+xml</dc:format>
        <dc:type
           rdf:resource="http://purl.org/dc/dcmitype/StillImage" />
        <dc:title></dc:title>
      </cc:Work>
    </rdf:RDF>
  </metadata>
  <g
     transform="translate(-426.92554,-646.54753)"
     id="layer1">
    <g
       id="g3355">
      <path
         id="path3351"
         d="m 459.88993,771.88267 c -15.71946,-2.37583 -29.36987,-4.34733 -30.33425,-4.38111 -0.96439,-0.0338 -1.95069,-0.22004 -2.19178,-0.41393 -0.3421,-0.27511 -0.43836,-5.08019 -0.43836,-21.88186 l 0,-21.52934 1.03833,-0.63144 c 0.58257,-0.35428 5.70062,-1.60878 11.66027,-2.85807 11.60238,-2.43216 13.05387,-2.77693 12.79221,-3.03859 -0.0962,-0.0962 -3.74082,-0.45315 -8.0991,-0.79317 -4.35828,-0.34001 -7.98702,-0.68375 -8.06385,-0.76386 -0.30373,-0.31665 -0.63912,-35.29965 -0.34021,-35.48439 0.50035,-0.30923 10.10171,-0.93253 24.6781,-1.60206 11.44731,-0.5258 16.63329,-0.5772 34.08747,-0.33781 11.32235,0.15528 21.42207,0.40253 22.44383,0.54945 l 1.85775,0.26712 0.0854,7.0091 c 0.047,3.85501 -0.0319,11.1779 -0.17534,16.27309 l -0.26078,9.26399 -2.27945,0.60703 c -1.2537,0.33387 -4.29687,1.12279 -6.7626,1.75314 -2.46574,0.63035 -4.35282,1.27643 -4.19353,1.43573 0.1593,0.15929 4.70165,0.60317 10.09411,0.98641 5.39247,0.38323 10.79079,0.79158 11.99627,0.90746 l 2.19178,0.21068 0,20.12839 0,20.12838 -0.78904,0.49223 c -0.43398,0.27072 -9.23179,4.45696 -19.55069,9.30275 -12.62218,5.92741 -19.10591,8.79577 -19.8137,8.76544 -0.57863,-0.0248 -13.91342,-1.98893 -29.63287,-4.36476 z m 0.17534,-97.61331 -9.11781,-0.20453 -0.0921,-12.72165 c -0.0723,-9.99612 0.003,-12.75435 0.35069,-12.87427 1.02986,-0.35499 36.96785,-2.16447 37.61534,-1.89393 0.38576,0.16117 5.27781,1.01038 10.87123,1.88711 5.59343,0.87674 10.36929,1.66587 10.61303,1.75363 0.34741,0.12508 0.42318,2.64281 0.35068,11.65364 l -0.0925,11.4941 -4.38356,0.23623 c -13.08423,0.70513 -32.17523,0.98236 -46.11507,0.66967 z"
         style="fill:#a5a5a5" />
      <path
         id="path3349"
         d="m 458.48719,725.94351 c -15.52658,-1.41036 -28.46685,-2.58646 -28.75617,-2.61356 -1.09228,-0.10229 1.56445,-0.75241 12.8,-3.13224 6.36493,-1.34817 12.04603,-2.62571 12.62466,-2.83899 0.81712,-0.30117 4.56737,-0.10991 16.79415,0.85652 8.65815,0.68435 15.80536,1.30754 15.88267,1.38486 0.0773,0.0773 3.47175,-0.69504 7.54317,-1.71636 l 7.40259,-1.85693 12.13392,0.88582 c 6.67365,0.4872 12.19966,0.94822 12.28003,1.02448 0.0804,0.0763 0.0804,0.19832 0,0.27122 -0.0804,0.0729 -8.23195,2.44002 -18.11462,5.26027 -15.15995,4.32625 -18.31173,5.12081 -20.16439,5.08347 -1.20773,-0.0243 -14.89944,-1.1982 -30.42601,-2.60856 z m 13.50137,-45.03783 c -6.55781,-0.13964 -15.55288,-0.27865 -19.98905,-0.30891 -7.90959,-0.0539 -9.87672,-0.43326 -4.59742,-0.88651 11.07401,-0.95075 25.1778,-1.30056 43.17277,-1.0708 10.41534,0.13299 19.1737,0.37631 19.46301,0.54073 0.39833,0.22636 0.3132,0.30206 -0.35068,0.31185 -0.4822,0.007 -5.45316,0.33135 -11.04658,0.72055 -14.29234,0.99448 -13.48501,0.97348 -26.65205,0.69309 z"
         style="fill:#707070" />
    </g>
  </g>
</svg>
