<?xml version="1.0" encoding="UTF-8" standalone="no"?>
<svg
   xmlns:dc="http://purl.org/dc/elements/1.1/"
   xmlns:cc="http://creativecommons.org/ns#"
   xmlns:rdf="http://www.w3.org/1999/02/22-rdf-syntax-ns#"
   xmlns:svg="http://www.w3.org/2000/svg"
   xmlns="http://www.w3.org/2000/svg"
   version="1.1"
   id="svg2"
   viewBox="0 0 115.90171 54.434789"
   height="15.362707mm"
   width="32.710037mm">
  <defs
     id="defs4" />
  <metadata
     id="metadata7">
    <rdf:RDF>
      <cc:Work
         rdf:about="">
        <dc:format>image/svg+xml</dc:format>
        <dc:type
           rdf:resource="http://purl.org/dc/dcmitype/StillImage" />
        <dc:title></dc:title>
      </cc:Work>
    </rdf:RDF>
  </metadata>
  <g
     transform="translate(-28.637272,-659.23064)"
     id="layer1">
    <g
       id="g3374">
      <g
         id="g3369">
        <path
           style="fill:#d0d0d0"
           d="m 57.310236,708.32264 c -15.171262,-2.98791 -27.829107,-5.53869 -28.12854,-5.6684 l -0.544424,-0.23584 0,-17.91826 c 0,-14.12935 0.06396,-17.93569 0.302458,-18.00066 0.255529,-0.0696 15.409317,-2.02136 49.691016,-6.39998 l 6.80255,-0.86886 29.008424,4.18292 c 15.95462,2.3006 29.2534,4.23233 29.55283,4.29273 l 0.54443,0.10982 0,18.49151 c 0,13.51832 -0.0738,18.5371 -0.27426,18.66101 -0.2543,0.15717 -9.66338,1.55109 -44.731414,6.62678 -7.5191,1.0883 -13.88885,2.01947 -14.15501,2.06926 -0.26617,0.0498 -12.89679,-2.35413 -28.06806,-5.34203 z m 21.41399,-14.00416 c 0,-9.10805 -0.0292,-9.79203 -0.42344,-9.90955 -1.27392,-0.37977 -18.99515,-3.52654 -19.18815,-3.40726 -0.13865,0.0857 -0.22962,3.97369 -0.22962,9.81387 0,8.14796 0.0543,9.6928 0.34481,9.80427 0.32823,0.12595 18.56113,3.41213 19.19395,3.45939 0.23735,0.0177 0.30245,-2.08334 0.30245,-9.76072 z m -10.13853,6.6242 c -4.86714,-0.87329 -7.91638,-1.52734 -8.04167,-1.72491 -0.11099,-0.17504 -0.20347,-3.87089 -0.20551,-8.21301 -0.003,-6.41484 0.0588,-7.94662 0.3297,-8.17146 0.25478,-0.21144 2.11464,0.0384 7.88632,1.05922 4.1541,0.73476 7.65171,1.33592 7.77245,1.33592 0.12075,0 0.43732,0.21777 0.70348,0.48394 0.46349,0.46349 0.48393,0.80655 0.48393,8.12176 0,7.5065 -0.10299,8.61362 -0.7949,8.54455 -0.16167,-0.0161 -3.82188,-0.66235 -8.1338,-1.43601 z m -15.02593,-10.14902 c 0,-4.65784 -0.0746,-8.46881 -0.16588,-8.46881 -0.0912,0 -0.417885,0.23675 -0.725896,0.52611 l -0.560018,0.52611 0,6.96056 c 0,4.41893 -0.08911,7.01563 -0.244047,7.11138 -0.311497,0.19252 -15.986647,-2.5312 -16.391114,-2.84812 -0.438195,-0.34335 -0.438195,-16.22199 0,-16.57133 0.206884,-0.16493 2.47569,0.14178 7.179991,0.97065 6.816296,1.20098 6.88476,1.20787 7.689109,0.7747 0.446366,-0.24038 0.726902,-0.51324 0.62341,-0.60636 -0.103488,-0.0931 -3.781357,-0.79247 -8.173039,-1.55412 -4.391683,-0.76164 -8.229868,-1.44069 -8.529301,-1.50898 l -0.544423,-0.12418 0,9.93588 0,9.93587 0.907372,0.17159 c 4.001682,0.75675 17.957488,3.19646 18.389414,3.21478 l 0.544422,0.0231 0,-8.46881 z m -9.445949,1.59222 c 2.912549,-6.10239 7.696633,-11.13377 12.120159,-12.74667 1.04877,-0.3824 1.43991,-0.64176 1.38699,-0.91969 -0.23252,-1.22116 -4.36132,0.16853 -8.470527,2.85105 -2.388062,1.55895 -3.592599,2.66402 -4.665241,4.28002 -0.479547,0.72247 -1.002376,1.31358 -1.161842,1.31358 -0.159467,0 -0.55729,-0.50396 -0.884052,-1.11991 -0.874064,-1.64763 -1.430961,-2.26761 -2.036871,-2.26761 -0.592802,0 -2.485298,1.11835 -3.045184,1.79952 -0.319557,0.38878 -0.284477,0.47928 0.362949,0.93634 1.454704,1.02698 2.581808,2.51112 3.930773,5.17592 0.760802,1.50292 1.407401,2.73306 1.436887,2.73365 0.02949,4.8e-4 0.491167,-0.9157 1.025959,-2.0362 z"
           id="path3355" />
        <path
           style="fill:#bdbdbd"
           d="m 56.342376,707.83943 c -15.038185,-2.97286 -27.370078,-5.4111 -27.404206,-5.4183 -0.03413,-0.007 -0.03413,-8.04335 0,-17.85809 l 0.06205,-17.84499 1.330813,0.0492 c 1.310839,0.0485 53.749363,9.09258 54.926273,9.47313 0.40743,0.13174 9.95662,-1.16335 29.249564,-3.96692 15.75455,-2.28939 28.84862,-4.10918 29.09793,-4.04398 0.4387,0.11472 0.4513,0.70365 0.39128,18.29786 l -0.062,18.17932 -15.36484,2.2287 c -8.45066,1.22579 -21.75226,3.15849 -29.559114,4.2949 -7.80685,1.1364 -14.44881,2.05452 -14.75992,2.04025 -0.31111,-0.0143 -12.86962,-2.45827 -27.90781,-5.43113 z m 22.71891,-3.87841 c 0.0808,-0.21051 0.14687,-4.61256 0.14687,-9.78234 0,-7.49264 -0.0652,-9.46447 -0.32135,-9.71934 -0.37443,-0.37256 -19.36329,-3.9401 -19.89198,-3.73723 -0.30244,0.11606 -0.35377,1.57752 -0.35377,10.07155 0,7.90822 0.0639,9.96033 0.31326,10.05601 0.41753,0.16022 18.77806,3.43593 19.44157,3.46857 0.28519,0.014 0.58463,-0.14671 0.6654,-0.35722 z m -10.95352,-3.3722 c -4.52756,-0.81236 -7.1834,-1.39441 -7.31577,-1.60331 -0.11429,-0.18037 -0.20947,-3.77171 -0.21151,-7.98075 -0.003,-5.8329 0.0682,-7.71152 0.29875,-7.89977 0.21095,-0.17226 2.53532,0.14666 7.68242,1.05409 4.05898,0.71559 7.62495,1.35989 7.92439,1.43179 l 0.54442,0.13073 0,8.10125 0,8.10125 -0.90737,-0.03 c -0.49906,-0.0165 -4.10595,-0.60388 -8.01533,-1.30531 z m -14.30603,-9.91614 c 0,-5.23724 -0.0909,-8.83176 -0.2234,-8.83176 -0.12288,0 -0.558414,0.28189 -0.967866,0.62642 l -0.744464,0.62643 0,6.98122 c 0,3.83968 -0.09137,7.0377 -0.203041,7.10671 -0.284221,0.17566 -15.577845,-2.53026 -15.948188,-2.82173 -0.231006,-0.1818 -0.302457,-2.11735 -0.302457,-8.19329 l 0,-7.95525 0.607892,0 c 0.334341,0 3.355891,0.48366 6.714556,1.07479 3.358665,0.59113 6.378875,1.10833 6.711578,1.14933 0.536705,0.0661 0.400282,0.2271 -1.20983,1.42735 -1.941666,1.4474 -3.491952,3.01138 -4.239593,4.27703 -0.254155,0.43025 -0.533157,0.78228 -0.620004,0.78228 -0.08685,0 -0.576961,-0.71656 -1.089141,-1.59235 -1.126483,-1.92619 -1.496722,-2.16792 -2.608806,-1.70326 -0.959654,0.40097 -2.814857,2.00647 -2.814857,2.43599 0,0.16165 0.284649,0.44625 0.632552,0.63244 1.205745,0.6453 2.741801,2.68625 4.099699,5.44725 0.747871,1.52064 1.431784,2.76306 1.519807,2.76093 0.08802,-0.002 0.64046,-1.04125 1.227639,-2.30916 1.602222,-3.45972 3.221326,-5.77141 5.927599,-8.46318 1.913574,-1.90332 2.860025,-2.64209 4.377205,-3.41671 1.06465,-0.54358 2.23516,-1.05893 2.60113,-1.14522 0.74537,-0.17575 0.8978,-0.86342 0.30115,-1.3586 -0.5116,-0.42459 -1.91827,-0.15459 -4.39251,0.8431 -1.234112,0.49763 -1.940832,0.68704 -1.762711,0.47242 0.16353,-0.19704 0.224348,-0.43124 0.135152,-0.52043 -0.235638,-0.23564 -17.392753,-3.22982 -17.751778,-3.09796 -0.433692,0.15928 -0.441531,19.85297 -0.008,20.1209 0.363615,0.22472 18.156331,3.41485 19.244304,3.45038 l 0.786393,0.0257 0,-8.83176 z"
           id="path3353" />
        <path
           style="fill:#989898"
           d="m 56.463356,707.62701 -27.221169,-5.37058 -0.06209,-17.51353 c -0.03415,-9.63243 0.02029,-17.59389 0.120983,-17.69212 0.150437,-0.14675 52.225246,8.76298 54.988366,9.40823 l 0.84688,0.19777 0.062,18.19887 0.062,18.19888 -0.78792,-0.0285 c -0.43336,-0.0157 -13.03745,-2.44524 -28.0091,-5.39906 z m 22.8399,-3.42403 c 0.22428,-0.58446 0.16759,-19.53511 -0.0595,-19.89311 -0.24282,-0.38278 -19.85216,-4.07482 -20.44142,-3.8487 -0.36736,0.14097 -0.40324,1.04627 -0.40324,10.17429 0,7.90999 0.066,10.07435 0.31358,10.2798 0.30031,0.24924 18.48266,3.59716 19.8042,3.64656 0.37685,0.0141 0.69984,-0.1333 0.78639,-0.35884 z m -10.86258,-3.82066 c -3.85936,-0.6894 -7.15312,-1.3387 -7.31947,-1.44289 -0.23168,-0.14512 -0.30246,-1.99467 -0.30246,-7.9038 0,-4.24289 0.0817,-7.76213 0.18148,-7.82053 0.16112,-0.0943 13.66038,2.21439 15.18394,2.59679 l 0.60434,0.15167 0,7.85929 0,7.85928 -0.66541,-0.0232 c -0.36597,-0.0127 -3.82306,-0.58723 -7.68242,-1.27663 z m -14.40278,-9.87912 -0.0166,-9.2432 0.79757,-0.42504 c 0.43867,-0.23378 1.342,-0.60643 2.00741,-0.82813 1.60191,-0.53372 1.68315,-0.63814 1.20933,-1.55439 -0.38452,-0.74358 -0.46068,-0.77691 -1.53287,-0.67067 -0.62054,0.0615 -1.81655,0.39157 -2.6578,0.73351 -1.371403,0.55742 -1.596555,0.58734 -2.177694,0.28938 -0.781289,-0.40058 -17.626142,-3.33756 -18.099828,-3.15579 -0.275132,0.10558 -0.332818,1.88799 -0.332818,10.2836 0,6.76512 0.08395,10.20777 0.251456,10.31129 0.367832,0.22733 18.580032,3.45064 19.655624,3.47877 l 0.91276,0.0239 -0.0166,-9.2432 z m -6.886447,5.80927 c -2.127222,-0.39174 -3.895451,-0.74003 -3.929397,-0.77398 -0.03395,-0.0339 0.617661,-1.42019 1.448016,-3.08055 1.701274,-3.40182 3.665792,-6.26431 5.631427,-8.20552 l 1.33015,-1.31363 -0.06429,6.99243 c -0.04059,4.41434 -0.153508,7.01107 -0.306261,7.04298 -0.133081,0.0278 -1.98242,-0.26998 -4.109642,-0.66173 z m -8.472589,-1.49136 -2.903591,-0.51894 -0.0638,-7.92439 c -0.05925,-7.35995 -0.03413,-7.92438 0.352678,-7.92438 0.651723,0 12.9911,2.18987 13.131719,2.33049 0.069,0.069 -0.05012,0.22373 -0.26473,0.34383 -1.351349,0.75625 -3.491718,2.64374 -4.376846,3.85974 -0.569862,0.78288 -1.107382,1.42958 -1.194489,1.43712 -0.08711,0.008 -0.482111,-0.55795 -0.877785,-1.25663 -0.395675,-0.69867 -0.948874,-1.47628 -1.229331,-1.728 -0.484064,-0.43448 -0.562252,-0.43765 -1.541875,-0.0624 -1.181001,0.45235 -3.088663,2.09416 -3.088663,2.65824 0,0.2086 0.471183,0.70346 1.047072,1.09968 1.555843,1.07045 2.644819,2.66737 4.350901,6.38035 l 0.861654,1.87524 -0.649662,-0.0255 c -0.357314,-0.014 -1.956278,-0.259 -3.553254,-0.54442 z"
           id="path3351" />
      </g>
    </g>
  </g>
</svg>
